<?xml version="1.0" encoding="UTF-8"?>
<!DOCTYPE svg PUBLIC "-//W3C//DTD SVG 1.1//EN" "http://www.w3.org/Graphics/SVG/1.1/DTD/svg11.dtd">
<!-- Creator: CorelDRAW -->
<svg xmlns="http://www.w3.org/2000/svg" xml:space="preserve" width="6.82666in" height="6.82666in" style="shape-rendering:geometricPrecision; text-rendering:geometricPrecision; image-rendering:optimizeQuality; fill-rule:evenodd; clip-rule:evenodd"
viewBox="0 0 6.82666 6.82666"
 xmlns:xlink="http://www.w3.org/1999/xlink">
 <defs>
  <style type="text/css">
   <![CDATA[
    .fil0 {fill:#424242}
    .fil1 {fill:#FFFFFE;fill-rule:nonzero}
   ]]>
  </style>
 </defs>
 <rect class="fil0" width="6.82666" height="6.82666"/>
 <g id="Layer_x0020_1">
  <metadata id="CorelCorpID_0Corel-Layer"/>
  <g id="_501813032">
   <path id="_501812480" class="fil1" d="M1.46931 5.10553c-0.0909646,-0.0932756 -0.167374,-0.193461 -0.230098,-0.299772 -0.0735433,-0.124646 -0.12835,-0.257547 -0.165835,-0.397449l-0.000102362 2.75591e-005c-0.000397638,-0.00148819 -0.000748031,-0.00298031 -0.00105906,-0.0044685 -0.112067,-0.422953 -0.0426496,-0.851752 0.160421,-1.20348 0.203697,-0.352811 0.541929,-0.627953 0.966346,-0.741693l-2.75591e-005 -0.000102362c0.00150394,-0.000401575 0.00300394,-0.000755906 0.00450787,-0.00106693 0.422803,-0.112012 0.85148,-0.0426024 1.20314,0.160425l0.000311024 -0.000220472c0.00175591,0.00101575 0.00346063,0.00208661 0.00511024,0.00320866 0.35035,0.204008 0.623394,0.540996 0.736583,0.963358l0.000102362 -2.75591e-005c0.000401575,0.00149606 0.000751969,0.00298819 0.00106299,0.00448425 0.112059,0.422957 0.0426457,0.851752 -0.160421,1.20348 -0.203697,0.352807 -0.541929,0.627949 -0.966354,0.741689l2.75591e-005 0.000102362c-0.0013937,0.000374016 -0.00278346,0.000704724 -0.00417717,0.001 -0.167142,0.0443307 -0.333827,0.0605748 -0.496724,0.0514449 -0.155728,-0.00872835 -0.307587,-0.0406339 -0.452732,-0.0933031 -0.0226181,0.0155551 -0.0475787,0.0328622 -0.0720512,0.0498307 -0.274205,0.190146 -0.487114,0.337787 -1.03487,0.429079l2.75591e-005 0.000161417c-0.0435787,0.00726378 -0.0848031,-0.0221811 -0.0920669,-0.0657598 -0.00512992,-0.0307874 0.00806299,-0.0603976 0.0316142,-0.077689 0.190622,-0.164736 0.310528,-0.284654 0.395496,-0.399209 0.0745748,-0.100547 0.123516,-0.199425 0.171768,-0.324047zm2.03835 -1.53807c0.0441811,0 0.08,-0.0358189 0.08,-0.08 0,-0.0441811 -0.0358189,-0.08 -0.08,-0.08l-1.81581 0c-0.0441811,0 -0.08,0.0358189 -0.08,0.08 0,0.0441811 0.0358189,0.08 0.08,0.08l1.81581 0zm0 0.509102c0.0441811,0 0.08,-0.0358189 0.08,-0.08 0,-0.0441811 -0.0358189,-0.08 -0.08,-0.08l-1.81581 0c-0.0441811,0 -0.08,0.0358189 -0.08,0.08 0,0.0441811 0.0358189,0.08 0.08,0.08l1.81581 0zm0 0.509106c0.0441811,0 0.08,-0.0358189 0.08,-0.08 0,-0.0441811 -0.0358189,-0.08 -0.08,-0.08l-1.81581 0c-0.0441811,0 -0.08,0.0358189 -0.08,0.08 0,0.0441811 0.0358189,0.08 0.08,0.08l1.81581 0z"/>
   <path id="_501813128" class="fil1" d="M5.95733 0.933323l0 1.99086c0,0.0441811 -0.0358189,0.08 -0.08,0.08l-0.530701 0c0.0246535,0.0545709 0.0520748,0.107756 0.0830433,0.160331 0.051063,0.086685 0.11248,0.172799 0.187839,0.261953l-0.060937 0.051563 0.0610984 -0.0516457c0.0285197,0.0337402 0.0242874,0.0842244 -0.00945276,0.112744 -0.0229567,0.0194055 -0.0536654,0.0236378 -0.0799331,0.0137402 -0.334831,-0.111142 -0.543295,-0.241264 -0.751736,-0.371382 -0.0968898,-0.0604803 -0.193783,-0.120972 -0.299713,-0.177303l-0.52565 0c-0.00626378,-0.0082874 -0.0126063,-0.0165157 -0.0190157,-0.0246929l-0.00320866 -0.00407087c-0.00554331,-0.0070315 -0.0111299,-0.0140157 -0.0167874,-0.0209567l-0.00383465 -0.00465354c-0.126677,-0.154315 -0.280535,-0.287449 -0.453661,-0.396547 -0.00257087,-0.00162205 -0.00506693,-0.00325197 -0.00770472,-0.00477559l-0.044437 -0.0257047 -0.00109449 0.000775591c-0.0100906,-0.00540157 -0.0202323,-0.010685 -0.0304134,-0.0158583l0.00544094 0.00277559 0.00120079 -0.00207874 0.016063 0.00929134 1.96677 0c0.0441811,0 0.08,-0.0358189 0.08,-0.08 0,-0.0441811 -0.0358189,-0.08 -0.08,-0.08l-2.21673 0c-0.0276654,0 -0.0520551,0.0140512 -0.0664213,0.0353976 -0.121413,-0.0342756 -0.246224,-0.0544646 -0.372201,-0.061122l-0.000692913 -3.54331e-005 -0.00249606 -0.000125984 -0.00249213 -0.000125984 -0.00249213 -0.000122047c-0.00367323,-0.000173228 -0.00735433,-0.00034252 -0.0110354,-0.000496063l-0.00909055 -0.000362205 -0.00900787 -0.000307087c-0.00371654,-0.00011811 -0.00743701,-0.000224409 -0.0111575,-0.000318898l-0.00813386 -0.000188976c-0.00427165,-9.05512e-005 -0.00854724,-0.000161417 -0.0128228,-0.000224409l-0.0049685 -6.29921e-005c-0.00532283,-5.90551e-005 -0.0106457,-9.44882e-005 -0.0159685,-0.000102362l-0.00320079 0c-0.00527559,-3.93701e-006 -0.0105551,1.9685e-005 -0.0158386,6.69291e-005l-0.00342126 3.14961e-005c-0.00561024,5.90551e-005 -0.0112165,0.000145669 -0.0168268,0.000259843l-0.00208268 4.33071e-005c-0.00579921,0.000122047 -0.0115984,0.000275591 -0.0173976,0.000452756l-0.00224409 6.69291e-005 -0.00683071 0.000232283 0 -1.39732c0,-0.0441811 0.0358189,-0.08 0.08,-0.08l3.25037 0c0.0441811,0 0.08,0.0358189 0.08,0.08zm-0.596823 0.566496c0.0441811,0 0.08,-0.0358189 0.08,-0.08 0,-0.0441811 -0.0358189,-0.08 -0.08,-0.08l-2.21673 0c-0.0441811,0 -0.08,0.0358189 -0.08,0.08 0,0.0441811 0.0358189,0.08 0.08,0.08l2.21673 0zm0 0.508929c0.0441811,0 0.08,-0.0358189 0.08,-0.08 0,-0.0441811 -0.0358189,-0.08 -0.08,-0.08l-2.21673 0c-0.0441811,0 -0.08,0.0358189 -0.08,0.08 0,0.0441811 0.0358189,0.08 0.08,0.08l2.21673 0zm-1.99016 0.498606c-0.00320472,-0.00162598 -0.00641339,-0.00324409 -0.00962598,-0.00484646 0.0032126,0.00160236 0.00641732,0.00322047 0.00962598,0.00484646zm-0.0305433 -0.0150945c-0.00662598,-0.00318898 -0.0132677,-0.00632283 -0.0199291,-0.00941339 0.00666142,0.00308661 0.0132992,0.00622441 0.0199291,0.00941339zm-0.0317087 -0.0148268l-0.00920472 -0.00414567c0.00307087,0.00137008 0.00614173,0.00275591 0.00920472,0.00414567zm-0.0321929 -0.0142008c-0.00270079,-0.00116142 -0.00540551,-0.00230315 -0.00811417,-0.00344488l-0.00112598 -0.000480315 -0.000145669 -5.90551e-005 -0.000893701 -0.000374016 -0.00840157 -0.00350394 -0.00111024 -0.00046063 -0.00150394 -0.000614173 -0.008 -0.00326772 -0.00199213 -0.000807087 -0.00880315 -0.00351969 -0.000874016 -0.000350394 -0.00102756 -0.000405512 -0.00838189 -0.00328346"/>
  </g>
 </g>
</svg>
