<?xml version="1.0" encoding="iso-8859-1"?>
<!-- Generator: Adobe Illustrator 19.0.0, SVG Export Plug-In . SVG Version: 6.00 Build 0)  -->
<svg xmlns="http://www.w3.org/2000/svg" xmlns:xlink="http://www.w3.org/1999/xlink" version="1.1" id="Layer_1" x="0px" y="0px" viewBox="0 0 512 512" style="enable-background:new 0 0 512 512;" xml:space="preserve">
<rect x="9.253" y="76.274" style="fill:#30D8B8;" width="133.841" height="76.758"/>
<rect x="9.253" y="129.547" style="fill:#00C6A5;" width="133.841" height="23.483"/>
<rect x="189.085" y="76.274" style="fill:#00A5FF;" width="133.841" height="76.758"/>
<rect x="189.085" y="129.547" style="fill:#0087FF;" width="133.841" height="23.483"/>
<g>
	<rect x="9.253" y="153.037" style="fill:#E0E0E3;" width="133.841" height="29.187"/>
	<rect x="189.085" y="153.037" style="fill:#E0E0E3;" width="133.841" height="29.187"/>
</g>
<rect x="189.085" y="305.331" style="fill:#FF318E;" width="133.841" height="76.758"/>
<rect x="189.085" y="356.029" style="fill:#EA1F8E;" width="133.841" height="26.056"/>
<rect x="189.085" y="382.089" style="fill:#E0E0E3;" width="133.841" height="29.187"/>
<rect x="368.912" y="76.274" style="fill:#FF9900;" width="133.841" height="76.758"/>
<rect x="368.912" y="129.547" style="fill:#FF8800;" width="133.841" height="23.483"/>
<rect x="368.912" y="153.037" style="fill:#E0E0E3;" width="133.841" height="29.187"/>
<path d="M502.747,112.271c5.111,0,9.253-4.142,9.253-9.253V76.274c0-5.111-4.142-9.253-9.253-9.253H368.911  c-5.111,0-9.253,4.142-9.253,9.253V120.3h-27.487V76.274c0-5.111-4.142-9.253-9.253-9.253H189.082c-5.111,0-9.253,4.142-9.253,9.253  V120.3h-27.487V76.274c0-5.111-4.142-9.253-9.253-9.253h-34.52c-5.111,0-9.253,4.142-9.253,9.253s4.142,9.253,9.253,9.253h25.268  v58.254H67.238c-5.111,0-9.253,4.142-9.253,9.253c0,5.111,4.142,9.253,9.253,9.253h66.598v10.682H18.506v-10.682h14.188  c5.111,0,9.253-4.142,9.253-9.253c0-5.111-4.142-9.253-9.253-9.253H18.506V85.528h57.665c5.111,0,9.253-4.142,9.253-9.253  s-4.142-9.253-9.253-9.253H9.253C4.142,67.022,0,71.164,0,76.274v76.76v29.188c0,5.111,4.142,9.253,9.253,9.253h57.665v5.947h-5.419  c-5.111,0-9.253,4.142-9.253,9.253c0,5.111,4.142,9.253,9.253,9.253h29.345c5.111,0,9.253-4.142,9.253-9.253  c0-5.111-4.142-9.253-9.253-9.253h-5.419v-5.947h57.665c5.111,0,9.253-4.142,9.253-9.253v-29.188v-14.229h27.487v14.229v29.188  c0,5.111,4.142,9.253,9.253,9.253h57.665v5.947h-5.419c-5.111,0-9.253,4.142-9.253,9.253c0,5.111,4.142,9.253,9.253,9.253h29.345  c5.111,0,9.253-4.142,9.253-9.253c0-5.111-4.142-9.253-9.253-9.253h-5.419v-5.947h57.665c5.111,0,9.253-4.142,9.253-9.253v-29.188  v-14.229h27.487v14.229v29.188c0,5.111,4.142,9.253,9.253,9.253h57.665v5.947h-5.419c-5.111,0-9.253,4.142-9.253,9.253  c0,5.111,4.142,9.253,9.253,9.253h29.345c5.111,0,9.253-4.142,9.253-9.253c0-5.111-4.142-9.253-9.253-9.253h-5.419v-5.947h57.665  c5.111,0,9.253-4.142,9.253-9.253v-29.188v-17.322c0-5.111-4.142-9.253-9.253-9.253s-9.253,4.142-9.253,9.253v8.07h-89.852  l89.852-51.534v10.77C493.494,108.129,497.636,112.271,502.747,112.271z M198.335,85.528h115.331v58.254H198.335V85.528z   M313.665,172.969h-115.33v-10.682h115.331v10.682H313.665z M468.015,85.528l-89.851,51.533V85.528H468.015z M493.494,172.969  h-115.33v-10.682h115.331v10.682H493.494z"/>
<path d="M389.86,338.878h-57.689v-33.552c0-5.111-4.142-9.253-9.253-9.253h-20.653c-5.111,0-9.253,4.142-9.253,9.253  s4.142,9.253,9.253,9.253h11.4v58.254h-115.33v-58.254h66.918c5.111,0,9.253-4.142,9.253-9.253s-4.142-9.253-9.253-9.253h-76.171  c-5.111,0-9.253,4.142-9.253,9.253v33.552H83.167v-83.571c1.719,1.449,3.837,2.181,5.958,2.181c2.368,0,4.737-0.904,6.543-2.709  c3.613-3.614,3.613-9.472,0-13.086l-15.211-15.212c-3.614-3.612-9.472-3.612-13.086,0L52.16,241.691  c-3.613,3.614-3.613,9.472,0,13.086c3.426,3.424,8.865,3.597,12.501,0.529v92.825c0,5.111,4.142,9.253,9.253,9.253H179.83v24.702  v29.188c0,5.111,4.142,9.253,9.253,9.253h57.665v5.947h-5.419c-5.111,0-9.253,4.142-9.253,9.253s4.142,9.253,9.253,9.253h29.345  c5.111,0,9.253-4.142,9.253-9.253s-4.142-9.253-9.253-9.253h-5.419v-5.947h57.665c5.111,0,9.253-4.142,9.253-9.253v-29.188v-24.702  h57.689c5.111,0,9.253-4.142,9.253-9.253C399.113,343.02,394.971,338.878,389.86,338.878z M313.665,402.021h-115.33v-10.682h115.331  v10.682H313.665z"/>
<path d="M103.281,127.393c5.111,0,9.253-4.142,9.253-9.253v-6.969c0-5.111-4.142-9.253-9.253-9.253s-9.253,4.142-9.253,9.253v6.969  C94.027,123.251,98.17,127.393,103.281,127.393z"/>
<path d="M76.171,101.916c-5.111,0-9.253,4.142-9.253,9.253v6.969c0,5.111,4.142,9.253,9.253,9.253c5.111,0,9.253-4.142,9.253-9.253  v-6.969C85.425,106.059,81.282,101.916,76.171,101.916z"/>
<path d="M39.807,111.17v6.969c0,5.111,4.142,9.253,9.253,9.253s9.253-4.142,9.253-9.253v-6.969c0-5.111-4.142-9.253-9.253-9.253  S39.807,106.059,39.807,111.17z"/>
<path d="M293.998,105.402H220.97c-5.111,0-9.253,4.142-9.253,9.253s4.142,9.253,9.253,9.253h73.028c5.111,0,9.253-4.142,9.253-9.253  S299.108,105.402,293.998,105.402z"/>
<path d="M444.63,226.481c-3.614-3.612-9.472-3.612-13.086,0l-15.211,15.211c-3.613,3.614-3.613,9.472,0,13.086  c3.426,3.424,8.865,3.597,12.501,0.529v83.571h-9.364c-5.111,0-9.253,4.142-9.253,9.253s4.142,9.253,9.253,9.253h18.617  c5.111,0,9.253-4.142,9.253-9.253v-92.825c1.719,1.449,3.837,2.181,5.958,2.181c2.368,0,4.737-0.904,6.543-2.709  c3.613-3.614,3.613-9.472,0-13.086L444.63,226.481z"/>
<path d="M152.143,383.618c-5.111,0-9.253,4.142-9.253,9.253v7.619c0,5.111,4.142,9.253,9.253,9.253c5.111,0,9.253-4.142,9.253-9.253  v-7.619C161.396,387.761,157.254,383.618,152.143,383.618z"/>
<path d="M122.508,383.618c-5.111,0-9.253,4.142-9.253,9.253v7.619c0,5.111,4.142,9.253,9.253,9.253c5.111,0,9.253-4.142,9.253-9.253  v-7.619C131.762,387.761,127.62,383.618,122.508,383.618z"/>
<path d="M92.874,383.618c-5.111,0-9.253,4.142-9.253,9.253v7.619c0,5.111,4.142,9.253,9.253,9.253s9.253-4.142,9.253-9.253v-7.619  C102.126,387.761,97.984,383.618,92.874,383.618z"/>
<path d="M419.126,383.618c-5.111,0-9.253,4.142-9.253,9.253v7.619c0,5.111,4.142,9.253,9.253,9.253c5.111,0,9.253-4.142,9.253-9.253  v-7.619C428.38,387.761,424.237,383.618,419.126,383.618z"/>
<path d="M389.492,383.618c-5.111,0-9.253,4.142-9.253,9.253v7.619c0,5.111,4.142,9.253,9.253,9.253c5.111,0,9.253-4.142,9.253-9.253  v-7.619C398.745,387.761,394.603,383.618,389.492,383.618z"/>
<path d="M359.857,383.618c-5.111,0-9.253,4.142-9.253,9.253v7.619c0,5.111,4.142,9.253,9.253,9.253c5.111,0,9.253-4.142,9.253-9.253  v-7.619C369.109,387.761,364.967,383.618,359.857,383.618z"/>
<g>
</g>
<g>
</g>
<g>
</g>
<g>
</g>
<g>
</g>
<g>
</g>
<g>
</g>
<g>
</g>
<g>
</g>
<g>
</g>
<g>
</g>
<g>
</g>
<g>
</g>
<g>
</g>
<g>
</g>
</svg>
