<svg xmlns="http://www.w3.org/2000/svg" width="128" height="128" viewBox="0 0 128 128">
  <title>TEAMWORK</title>
  <g>
    <path d="M59.017,45.033H69.1a9.274,9.274,0,0,1,9.274,9.274v9.258a0,0,0,0,1,0,0H49.743a0,0,0,0,1,0,0V54.307A9.274,9.274,0,0,1,59.017,45.033Z" fill="#005086"/>
    <ellipse cx="64.059" cy="35.667" rx="9.401" ry="9.366" fill="#f7d6bf"/>
    <path d="M28.754,83.166H38.838a9.274,9.274,0,0,1,9.274,9.274V101.7a0,0,0,0,1,0,0H19.48a0,0,0,0,1,0,0V92.44A9.274,9.274,0,0,1,28.754,83.166Z" fill="#005086"/>
    <ellipse cx="33.796" cy="73.801" rx="9.401" ry="9.366" fill="#f7d6bf"/>
    <path d="M89.279,83.166H99.363a9.274,9.274,0,0,1,9.274,9.274V101.7a0,0,0,0,1,0,0H80.005a0,0,0,0,1,0,0V92.44A9.274,9.274,0,0,1,89.279,83.166Z" fill="#005086"/>
    <ellipse cx="94.321" cy="73.801" rx="9.401" ry="9.366" fill="#f7d6bf"/>
    <path d="M33.8,58.847a1.75,1.75,0,0,1-1.75-1.75V54.511a9.279,9.279,0,0,1,9.268-9.269h1.544a1.75,1.75,0,0,1,0,3.5H41.314a5.775,5.775,0,0,0-5.768,5.769V57.1A1.75,1.75,0,0,1,33.8,58.847Z" fill="#318fb5"/>
    <path d="M72.382,95.336H55.794a1.75,1.75,0,0,1,0-3.5H72.382a1.75,1.75,0,0,1,0,3.5Z" fill="#318fb5"/>
    <path d="M94.321,58.847a1.75,1.75,0,0,1-1.75-1.75V54.511A5.775,5.775,0,0,0,86.8,48.742H85.4a1.75,1.75,0,0,1,0-3.5H86.8a9.279,9.279,0,0,1,9.268,9.269V57.1A1.75,1.75,0,0,1,94.321,58.847Z" fill="#318fb5"/>
  </g>
  <g>
    <path d="M49.742,65.315H78.375a1.75,1.75,0,0,0,1.75-1.75V54.307a11.034,11.034,0,0,0-8.308-10.672,11.152,11.152,0,1,0-15.516,0,11.034,11.034,0,0,0-8.309,10.672v9.258A1.75,1.75,0,0,0,49.742,65.315ZM64.059,28.051a7.616,7.616,0,1,1-7.652,7.616A7.643,7.643,0,0,1,64.059,28.051ZM51.492,54.307a7.532,7.532,0,0,1,7.525-7.524H69.1a7.532,7.532,0,0,1,7.524,7.524v7.508H51.492Z" fill="#172956"/>
    <path d="M41.554,81.768A11.128,11.128,0,1,0,22.645,73.8a1.75,1.75,0,0,0,3.5,0,7.623,7.623,0,1,1,1.085,3.912,1.75,1.75,0,0,0-3,1.808,11.074,11.074,0,0,0,1.8,2.25,11.033,11.033,0,0,0-8.3,10.669V101.7a1.751,1.751,0,0,0,1.75,1.75H48.112a1.75,1.75,0,0,0,1.75-1.75V92.44A11.034,11.034,0,0,0,41.554,81.768Zm4.808,18.181H21.229V92.44a7.533,7.533,0,0,1,7.525-7.524H38.838a7.533,7.533,0,0,1,7.524,7.524Z" fill="#172956"/>
    <path d="M99.256,99.949h-.25a1.75,1.75,0,0,0,0,3.5h.25a1.75,1.75,0,0,0,0-3.5Z" fill="#172956"/>
    <path d="M102.079,81.768a11.151,11.151,0,1,0-15.516,0A11.034,11.034,0,0,0,78.255,92.44V101.7a1.75,1.75,0,0,0,1.75,1.75H93.589a1.75,1.75,0,0,0,0-3.5H81.755V92.44a7.533,7.533,0,0,1,7.524-7.524H99.363a7.533,7.533,0,0,1,7.525,7.524v7.509h-1.132a1.75,1.75,0,0,0,0,3.5h2.882a1.751,1.751,0,0,0,1.75-1.75V92.44A11.034,11.034,0,0,0,102.079,81.768ZM94.321,66.185A7.616,7.616,0,1,1,86.67,73.8,7.643,7.643,0,0,1,94.321,66.185Z" fill="#172956"/>
    <path d="M33.8,58.847a1.75,1.75,0,0,0,1.75-1.75V54.511a5.775,5.775,0,0,1,5.768-5.769h1.544a1.75,1.75,0,0,0,0-3.5H41.314a9.279,9.279,0,0,0-9.268,9.269V57.1A1.75,1.75,0,0,0,33.8,58.847Z" fill="#172956"/>
    <path d="M72.382,91.836H55.794a1.75,1.75,0,0,0,0,3.5H72.382a1.75,1.75,0,0,0,0-3.5Z" fill="#172956"/>
    <path d="M85.4,48.742H86.8a5.775,5.775,0,0,1,5.768,5.769V57.1a1.75,1.75,0,1,0,3.5,0V54.511A9.279,9.279,0,0,0,86.8,45.242H85.4a1.75,1.75,0,0,0,0,3.5Z" fill="#172956"/>
  </g>
</svg>
